<mxfile host="app.diagrams.net" modified="2021-09-13T17:17:05.026Z" agent="5.0 (Windows NT 10.0; Win64; x64) AppleWebKit/537.36 (KHTML, like Gecko) Chrome/93.0.4577.63 Safari/537.36" etag="ffOY_ak_7fuXSMePVI-q" version="15.2.4" type="github">
  <diagram id="RJl5MFsnUf7v-Yar5t6h" name="Page-1">
    <mxGraphModel dx="716" dy="399" grid="1" gridSize="10" guides="1" tooltips="1" connect="1" arrows="1" fold="1" page="1" pageScale="1" pageWidth="827" pageHeight="1169" math="0" shadow="0">
      <root>
        <mxCell id="0" />
        <mxCell id="1" parent="0" />
        <mxCell id="lFmK6TwoEIdT-TAxPeKn-2" value="Покупатель" style="shape=umlActor;verticalLabelPosition=bottom;verticalAlign=top;html=1;" vertex="1" parent="1">
          <mxGeometry x="170" y="80" width="30" height="60" as="geometry" />
        </mxCell>
        <mxCell id="lFmK6TwoEIdT-TAxPeKn-4" value="Дистрибьютер" style="shape=umlActor;verticalLabelPosition=bottom;verticalAlign=top;html=1;" vertex="1" parent="1">
          <mxGeometry x="170" y="400" width="30" height="60" as="geometry" />
        </mxCell>
        <mxCell id="lFmK6TwoEIdT-TAxPeKn-5" value="Разработчик" style="shape=umlActor;verticalLabelPosition=bottom;verticalAlign=top;html=1;" vertex="1" parent="1">
          <mxGeometry x="170" y="240" width="30" height="60" as="geometry" />
        </mxCell>
        <mxCell id="lFmK6TwoEIdT-TAxPeKn-6" value="Поиск ПО" style="ellipse;whiteSpace=wrap;html=1;" vertex="1" parent="1">
          <mxGeometry x="230" y="30" width="100" height="30" as="geometry" />
        </mxCell>
        <mxCell id="lFmK6TwoEIdT-TAxPeKn-7" value="Покупка ПО" style="ellipse;whiteSpace=wrap;html=1;" vertex="1" parent="1">
          <mxGeometry x="250" y="60" width="100" height="30" as="geometry" />
        </mxCell>
        <mxCell id="lFmK6TwoEIdT-TAxPeKn-8" value="Оценка ПО" style="ellipse;whiteSpace=wrap;html=1;" vertex="1" parent="1">
          <mxGeometry x="260" y="90" width="100" height="30" as="geometry" />
        </mxCell>
        <mxCell id="lFmK6TwoEIdT-TAxPeKn-9" value="Скачать ПО" style="ellipse;whiteSpace=wrap;html=1;" vertex="1" parent="1">
          <mxGeometry x="250" y="120" width="100" height="30" as="geometry" />
        </mxCell>
        <mxCell id="lFmK6TwoEIdT-TAxPeKn-12" value="" style="endArrow=none;html=1;exitX=0.75;exitY=0.1;exitDx=0;exitDy=0;exitPerimeter=0;" edge="1" parent="1" source="lFmK6TwoEIdT-TAxPeKn-2" target="lFmK6TwoEIdT-TAxPeKn-6">
          <mxGeometry width="50" height="50" relative="1" as="geometry">
            <mxPoint x="200" y="80" as="sourcePoint" />
            <mxPoint x="230" y="50" as="targetPoint" />
            <Array as="points" />
          </mxGeometry>
        </mxCell>
        <mxCell id="lFmK6TwoEIdT-TAxPeKn-13" value="" style="endArrow=none;html=1;entryX=0;entryY=0.5;entryDx=0;entryDy=0;exitX=0.75;exitY=0.1;exitDx=0;exitDy=0;exitPerimeter=0;" edge="1" parent="1" source="lFmK6TwoEIdT-TAxPeKn-2" target="lFmK6TwoEIdT-TAxPeKn-7">
          <mxGeometry width="50" height="50" relative="1" as="geometry">
            <mxPoint x="210" y="125" as="sourcePoint" />
            <mxPoint x="250" y="85" as="targetPoint" />
          </mxGeometry>
        </mxCell>
        <mxCell id="lFmK6TwoEIdT-TAxPeKn-16" value="" style="endArrow=none;html=1;exitX=0.75;exitY=0.1;exitDx=0;exitDy=0;exitPerimeter=0;" edge="1" parent="1" source="lFmK6TwoEIdT-TAxPeKn-2" target="lFmK6TwoEIdT-TAxPeKn-8">
          <mxGeometry width="50" height="50" relative="1" as="geometry">
            <mxPoint x="202.5000000000001" y="96" as="sourcePoint" />
            <mxPoint x="258" y="105" as="targetPoint" />
          </mxGeometry>
        </mxCell>
        <mxCell id="lFmK6TwoEIdT-TAxPeKn-17" value="" style="endArrow=none;html=1;exitX=0.75;exitY=0.1;exitDx=0;exitDy=0;exitPerimeter=0;" edge="1" parent="1" source="lFmK6TwoEIdT-TAxPeKn-2" target="lFmK6TwoEIdT-TAxPeKn-9">
          <mxGeometry width="50" height="50" relative="1" as="geometry">
            <mxPoint x="212.5000000000001" y="106" as="sourcePoint" />
            <mxPoint x="270.0000000000001" y="95" as="targetPoint" />
          </mxGeometry>
        </mxCell>
      </root>
    </mxGraphModel>
  </diagram>
</mxfile>
